<svg xmlns="http://www.w3.org/2000/svg" viewBox="-0.5 -0.5 24 24" id="Computers-Devices-Electronics-Keyboard-Button--Streamline-Pixel" height="29" width="29"><desc>Computers Devices Electronics Keyboard Button Streamline Icon: https://streamlinehq.com</desc><title>computers-devices-electronics-keyboard-button</title><g><path d="M21.9075 20.8078125h-1.0925v1.0996875H13.145937499999999v-2.1921874999999997h6.569375000000001V12.04625h1.0996875v-1.0925h-2.1921874999999997V2.1921874999999997h-1.0925v7.661875h-1.0996875v1.0996875H7.6690625v-1.0996875H6.5765625000000005v1.0996875H0v9.854062500000001h1.0996875v-1.0925h8.7615625v1.0925h1.0925v-1.0925h1.0996875v1.0925h-1.0996875v1.0996875H2.1921874999999997V23H23V13.145937499999999h-1.0925ZM8.768749999999999 18.615624999999998H1.0996875v-6.569375000000001H8.768749999999999Zm2.185 0v-6.569375000000001h7.6690625v6.569375000000001Z" fill="#a16207" stroke-width="1"></path><path d="M20.815 12.04625h1.0925v1.0996875h-1.0925Z" fill="#a16207" stroke-width="1"></path><path d="M19.7153125 19.7153125h1.0996875v1.0925h-1.0996875Z" fill="#a16207" stroke-width="1"></path><path d="M16.430625 1.0925h1.0996875v1.0996875h-1.0996875Z" fill="#a16207" stroke-width="1"></path><path d="M15.338125 14.2384375h1.0925v1.0925h-1.0925Z" fill="#a16207" stroke-width="1"></path><path d="M15.338125 8.7615625h1.0925v1.0925h-1.0925Z" fill="#a16207" stroke-width="1"></path><path d="M14.2384375 13.145937499999999h1.0996875v1.0925h-1.0996875Z" fill="#a16207" stroke-width="1"></path><path d="m16.430625 16.430625 -3.2846875000000004 0 0 -1.0996875 -1.0925 0 0 2.1921874999999997 5.476875 0 0 -2.1921874999999997 -1.0996875 0 0 1.0996875z" fill="#a16207" stroke-width="1"></path><path d="M13.145937499999999 14.2384375h1.0925v1.0925h-1.0925Z" fill="#a16207" stroke-width="1"></path><path d="m12.0534375 2.1921874999999997 -1.0996875 0 0 1.0925 -1.0925 0 0 -1.0925 -1.0925 0 0 1.0925 -1.0996875 0 0 1.0996875 1.0996875 0 0 1.0925 1.0925 0 0 1.0925 1.0925 0 0 -1.0925 1.0996875 0 0 -1.0925 1.0925 0 0 -1.0996875 -1.0925 0 0 -1.0925z" fill="#a16207" stroke-width="1"></path><path d="M15.338125 8.7615625V1.0925h1.0925V0H5.476875v9.854062500000001h1.0996875v-1.0925ZM6.5765625000000005 1.0925h7.661875v6.5765625000000005H6.5765625000000005Z" fill="#a16207" stroke-width="1"></path><path d="M5.476875 14.2384375h1.0996875v2.1921874999999997H5.476875Z" fill="#a16207" stroke-width="1"></path><path d="M3.291875 13.145937499999999h2.185v1.0925H3.291875Z" fill="#a16207" stroke-width="1"></path><path d="M3.291875 16.430625h2.185v1.0925H3.291875Z" fill="#a16207" stroke-width="1"></path><path d="M2.1921874999999997 14.2384375h1.0996875v2.1921874999999997H2.1921874999999997Z" fill="#a16207" stroke-width="1"></path><path d="M1.0996875 20.8078125h1.0925v1.0996875H1.0996875Z" fill="#a16207" stroke-width="1"></path></g></svg>