<svg xmlns="http://www.w3.org/2000/svg" viewBox="-0.5 -0.5 24 24" id="Computer-Old-Electronics-Bug--Streamline-Pixel" height="29" width="29"><desc>Computer Old Electronics Bug Streamline Icon: https://streamlinehq.com</desc><title>computer-old-electronics-bug</title><g><path d="M21.903906250000002 16.430625h-3.2846875000000004v-1.0996875h1.0925v-1.0925H3.2882812500000003v1.0925H4.3843749999999995v1.0996875H1.0960937499999999V23h20.8078125Zm-16.430625 -1.0996875h12.04625v1.0996875H5.47328125Zm15.338125 6.5765625000000005H2.18859375v-4.3843749999999995h18.6228125Z" fill="#a16207" stroke-width="1"></path><path d="M19.71171875 1.0925h1.0996875v13.145937499999999h-1.0996875Z" fill="#a16207" stroke-width="1"></path><path d="m16.42703125 20.8078125 1.0925 0 0 -1.0925 1.0996875 0 0 -1.0996875 -5.476875 0 0 1.0996875 3.2846875000000004 0 0 1.0925z" fill="#a16207" stroke-width="1"></path><path d="M14.23484375 4.3843749999999995h1.0996875v1.0925h-1.0996875Z" fill="#a16207" stroke-width="1"></path><path d="M7.66546875 4.3843749999999995h1.0925v1.0925h-1.0925Z" fill="#a16207" stroke-width="1"></path><path d="M15.334531250000001 6.569375000000001h-1.0996875V5.476875h-5.476875v1.0925h-1.0925v1.0996875h-1.0925v3.2846875000000004h1.0925v-2.1921874999999997h1.0925v2.1921874999999997h1.0996875v-1.0996875h3.2846875000000004v1.0996875h1.0925v-2.1921874999999997h1.0996875v2.1921874999999997h1.0925v-3.2846875000000004h-1.0925Zm-4.3843749999999995 1.0996875h-1.0925V6.569375000000001h1.0925Zm2.1921874999999997 0h-1.0925V6.569375000000001h1.0925Z" fill="#a16207" stroke-width="1"></path><path d="M4.3843749999999995 13.145937499999999h14.2384375V2.1921874999999997H4.3843749999999995ZM5.47328125 3.2846875000000004h12.04625v8.7615625H5.47328125Z" fill="#a16207" stroke-width="1"></path><path d="M4.38078125 18.615624999999998h1.0925v1.0996875h-1.0925Z" fill="#a16207" stroke-width="1"></path><path d="M3.2882812500000003 0h16.423437500000002v1.0925H3.2882812500000003Z" fill="#a16207" stroke-width="1"></path><path d="M2.18859375 1.0925h1.0996875v13.145937499999999h-1.0996875Z" fill="#a16207" stroke-width="1"></path></g></svg>